{
    "asset" : {
        "generator" : "Khronos glTF Blender I/O v1.6.16",
        "version" : "2.0"
    },
    "scene" : 0,
    "scenes" : [
        {
            "name" : "Scene",
            "nodes" : [
                0
            ]
        }
    ],
    "nodes" : [
        {
            "mesh" : 0,
            "name" : "Cube",
            "rotation" : [
                0.3049774467945099,
                0.2500530779361725,
                -0.38289424777030945,
                0.8353766798973083
            ],
            "translation" : [
                -7.802196502685547,
                1.2627251148223877,
                9.260834693908691
            ]
        }
    ],
    "animations" : [
        {
            "channels" : [
                {
                    "sampler" : 0,
                    "target" : {
                        "node" : 0,
                        "path" : "translation"
                    }
                },
                {
                    "sampler" : 1,
                    "target" : {
                        "node" : 0,
                        "path" : "rotation"
                    }
                },
                {
                    "sampler" : 2,
                    "target" : {
                        "node" : 0,
                        "path" : "scale"
                    }
                }
            ],
            "name" : "Cube|Cube|CubeAction|Cube|CubeAction.002",
            "samplers" : [
                {
                    "input" : 4,
                    "interpolation" : "LINEAR",
                    "output" : 5
                },
                {
                    "input" : 4,
                    "interpolation" : "LINEAR",
                    "output" : 6
                },
                {
                    "input" : 4,
                    "interpolation" : "LINEAR",
                    "output" : 7
                }
            ]
        }
    ],
    "materials" : [
        {
            "doubleSided" : true,
            "name" : "Material.001",
            "pbrMetallicRoughness" : {
                "baseColorFactor" : [
                    0,
                    0,
                    0,
                    1
                ],
                "metallicFactor" : 0,
                "roughnessFactor" : 0.3606299161911011
            }
        }
    ],
    "meshes" : [
        {
            "name" : "Cube.003",
            "primitives" : [
                {
                    "attributes" : {
                        "POSITION" : 0,
                        "NORMAL" : 1,
                        "TEXCOORD_0" : 2
                    },
                    "indices" : 3,
                    "material" : 0
                }
            ]
        }
    ],
    "accessors" : [
        {
            "bufferView" : 0,
            "componentType" : 5126,
            "count" : 9626,
            "max" : [
                1.0000025033950806,
                1.0000028610229492,
                1.0000020265579224
            ],
            "min" : [
                -1.0000025033950806,
                -1.0000026226043701,
                -1.0000032186508179
            ],
            "type" : "VEC3"
        },
        {
            "bufferView" : 1,
            "componentType" : 5126,
            "count" : 9626,
            "type" : "VEC3"
        },
        {
            "bufferView" : 2,
            "componentType" : 5126,
            "count" : 9626,
            "type" : "VEC2"
        },
        {
            "bufferView" : 3,
            "componentType" : 5123,
            "count" : 50976,
            "type" : "SCALAR"
        },
        {
            "bufferView" : 4,
            "componentType" : 5126,
            "count" : 101,
            "max" : [
                4.208333333333333
            ],
            "min" : [
                0.041666666666666664
            ],
            "type" : "SCALAR"
        },
        {
            "bufferView" : 5,
            "componentType" : 5126,
            "count" : 101,
            "type" : "VEC3"
        },
        {
            "bufferView" : 6,
            "componentType" : 5126,
            "count" : 101,
            "type" : "VEC4"
        },
        {
            "bufferView" : 7,
            "componentType" : 5126,
            "count" : 101,
            "type" : "VEC3"
        }
    ],
    "bufferViews" : [
        {
            "buffer" : 0,
            "byteLength" : 115512,
            "byteOffset" : 0
        },
        {
            "buffer" : 0,
            "byteLength" : 115512,
            "byteOffset" : 115512
        },
        {
            "buffer" : 0,
            "byteLength" : 77008,
            "byteOffset" : 231024
        },
        {
            "buffer" : 0,
            "byteLength" : 101952,
            "byteOffset" : 308032
        },
        {
            "buffer" : 0,
            "byteLength" : 404,
            "byteOffset" : 409984
        },
        {
            "buffer" : 0,
            "byteLength" : 1212,
            "byteOffset" : 410388
        },
        {
            "buffer" : 0,
            "byteLength" : 1616,
            "byteOffset" : 411600
        },
        {
            "buffer" : 0,
            "byteLength" : 1212,
            "byteOffset" : 413216
        }
    ],
    "buffers" : [
        {
            "byteLength" : 414428,
            "uri" : "data:application/octet-stream;base64,"
        }
    ]
}
