<svg class="svg-icon" style="width: 1em; height: 1em;vertical-align: middle;fill: currentColor;overflow: hidden;" viewBox="0 0 1024 1024" version="1.1" xmlns="http://www.w3.org/2000/svg"><path d="M921.052327 493.555929 771.805164 388.188136l149.247162-105.367793c9.026584-6.373151 11.178597-18.857487 4.804423-27.885094-6.371104-9.025561-18.856463-11.177574-27.884071-4.805446L731.020272 367.998305l-48.520063 0c58.765405-43.582611 135.578862-119.590725 104.084567-203.073068-13.291724-35.230386-49.054229-57.920154-91.210351-57.920154-0.181125 0-0.36532 0.001023-0.547469 0.001023-26.340925 0.122797-52.04126 9.094122-74.320683 25.944905-10.977006 8.303106-20.823258 18.243503-29.494755 29.758768-3.079128-10.006911-6.89606-20.196994-11.668761-30.097482-26.384927-54.725392-66.040089-66.213028-94.658893-66.213028-27.931143 0-67.898413 13.568017-99.677187 78.205153-4.213975 8.570189-7.827269 17.117866-10.886955 25.169239-35.914978-51.094702-76.42767-60.557214-100.001575-61.022819-38.037315-0.722454-74.833359 21.055548-91.491761 54.264904-15.84692 31.589462-17.83418 63.911612-5.907547 96.073102 21.957081 59.207473 87.410815 103.82567 130.758066 127.895879-25.75457 12.45466-60.360739 32.088836-95.119381 60.5961-90.168626 73.954339-137.829112 172.530448-137.829112 285.073664l0 116.043946c0 60.677964 49.364291 110.042255 110.042255 110.042255l600.22946 0c60.677964 0 110.043279-49.364291 110.043279-110.042255L894.843408 732.654492c0-112.543216-47.660486-211.119325-137.829112-285.073664-19.364023-15.881712-38.677904-29.007661-56.441477-39.672558l29.782304 0 167.620625 118.338199c3.50687 2.475378 7.534604 3.664459 11.522428 3.664459 6.28003 0 12.465916-2.949168 16.361643-8.469905C932.230923 512.413416 930.079934 499.92908 921.052327 493.555929zM214.21585 245.119697c-8.002254-21.61939-6.635117-42.6074 4.177136-64.161299 9.575076-19.088754 31.586392-32.210609 53.821813-32.210609 0.370437 0 0.74292 0.004093 1.111311 0.010233 33.822316 0.668219 65.148789 29.063943 88.210018 79.957053 3.581572 7.904017 11.846816 12.58769 20.476357 11.612479 8.623401-0.976234 15.637142-7.410783 17.36039-15.916505 6.65149-32.8205 34.942837-117.998461 85.309968-117.998461 41.403992 0 67.717288 39.273469 78.210269 116.729561 1.235131 9.111518 8.521071 16.210193 17.662265 17.204847 9.149381 0.991584 17.784038-4.370541 20.949124-13.003152 18.374486-50.109258 53.329603-80.137155 93.507674-80.323397 0.118704-0.001023 0.237407-0.001023 0.356111-0.001023 25.340131 0 46.425356 12.546757 53.774741 32.029484 14.297634 37.899168-4.367471 80.95887-55.479569 127.981836-33.42425 30.751375-70.75753 53.29481-84.141352 60.96756l-250.904447 0C336.061942 357.726358 238.2308 310.00038 214.21585 245.119697zM731.635279 478.520491C813.379025 545.564443 854.825996 631.066793 854.825996 732.654492l0 116.043946c0 38.612413-31.414477 70.02689-70.027913 70.02689L184.569646 918.725328c-38.612413 0-70.02689-31.414477-70.02689-70.02689L114.542756 732.654492c0-101.132328 41.098024-186.348152 122.151038-253.27954 57.350173-47.357588 115.722628-68.603471 123.989919-71.466682l248.00849 0C616.913445 410.735665 674.326039 431.515944 731.635279 478.520491z"  /></svg>